<?xml version="1.0" standalone="no"?>
<svg xmlns:xlink="http://www.w3.org/1999/xlink" id="wave" style="transform:rotate(0deg); transition: 0.3s" viewBox="0 0 1440 470" version="1.1" xmlns="http://www.w3.org/2000/svg"><defs><linearGradient id="sw-gradient-0" x1="0" x2="0" y1="1" y2="0"><stop stop-color="rgba(62, 197.446, 243, 1)" offset="0%"/><stop stop-color="rgba(11, 185.252, 255, 1)" offset="100%"/></linearGradient></defs><path style="transform:translate(0, 0px); opacity:1" fill="url(#sw-gradient-0)" d="M0,47L34.3,109.7C68.6,172,137,298,206,344.7C274.3,392,343,360,411,289.8C480,219,549,110,617,94C685.7,78,754,157,823,203.7C891.4,251,960,266,1029,266.3C1097.1,266,1166,251,1234,242.8C1302.9,235,1371,235,1440,219.3C1508.6,204,1577,172,1646,180.2C1714.3,188,1783,235,1851,219.3C1920,204,1989,125,2057,117.5C2125.7,110,2194,172,2263,180.2C2331.4,188,2400,141,2469,109.7C2537.1,78,2606,63,2674,54.8C2742.9,47,2811,47,2880,39.2C2948.6,31,3017,16,3086,15.7C3154.3,16,3223,31,3291,101.8C3360,172,3429,298,3497,360.3C3565.7,423,3634,423,3703,383.8C3771.4,345,3840,266,3909,258.5C3977.1,251,4046,313,4114,344.7C4182.9,376,4251,376,4320,336.8C4388.6,298,4457,219,4526,172.3C4594.3,125,4663,110,4731,117.5C4800,125,4869,157,4903,172.3L4937.1,188L4937.1,470L4902.9,470C4868.6,470,4800,470,4731,470C4662.9,470,4594,470,4526,470C4457.1,470,4389,470,4320,470C4251.4,470,4183,470,4114,470C4045.7,470,3977,470,3909,470C3840,470,3771,470,3703,470C3634.3,470,3566,470,3497,470C3428.6,470,3360,470,3291,470C3222.9,470,3154,470,3086,470C3017.1,470,2949,470,2880,470C2811.4,470,2743,470,2674,470C2605.7,470,2537,470,2469,470C2400,470,2331,470,2263,470C2194.3,470,2126,470,2057,470C1988.6,470,1920,470,1851,470C1782.9,470,1714,470,1646,470C1577.1,470,1509,470,1440,470C1371.4,470,1303,470,1234,470C1165.7,470,1097,470,1029,470C960,470,891,470,823,470C754.3,470,686,470,617,470C548.6,470,480,470,411,470C342.9,470,274,470,206,470C137.1,470,69,470,34,470L0,470Z"/><defs><linearGradient id="sw-gradient-1" x1="0" x2="0" y1="1" y2="0"><stop stop-color="rgba(243, 106, 62, 1)" offset="0%"/><stop stop-color="rgba(11, 255, 43.946, 1)" offset="100%"/></linearGradient></defs><path style="transform:translate(0, 50px); opacity:0.9" fill="url(#sw-gradient-1)" d="M0,47L34.3,78.3C68.6,110,137,172,206,180.2C274.3,188,343,141,411,148.8C480,157,549,219,617,274.2C685.7,329,754,376,823,376C891.4,376,960,329,1029,266.3C1097.1,204,1166,125,1234,117.5C1302.9,110,1371,172,1440,219.3C1508.6,266,1577,298,1646,289.8C1714.3,282,1783,235,1851,180.2C1920,125,1989,63,2057,39.2C2125.7,16,2194,31,2263,78.3C2331.4,125,2400,204,2469,266.3C2537.1,329,2606,376,2674,329C2742.9,282,2811,141,2880,125.3C2948.6,110,3017,219,3086,282C3154.3,345,3223,360,3291,336.8C3360,313,3429,251,3497,211.5C3565.7,172,3634,157,3703,180.2C3771.4,204,3840,266,3909,250.7C3977.1,235,4046,141,4114,109.7C4182.9,78,4251,110,4320,148.8C4388.6,188,4457,235,4526,282C4594.3,329,4663,376,4731,399.5C4800,423,4869,423,4903,423L4937.1,423L4937.1,470L4902.9,470C4868.6,470,4800,470,4731,470C4662.9,470,4594,470,4526,470C4457.1,470,4389,470,4320,470C4251.4,470,4183,470,4114,470C4045.7,470,3977,470,3909,470C3840,470,3771,470,3703,470C3634.3,470,3566,470,3497,470C3428.6,470,3360,470,3291,470C3222.9,470,3154,470,3086,470C3017.1,470,2949,470,2880,470C2811.4,470,2743,470,2674,470C2605.7,470,2537,470,2469,470C2400,470,2331,470,2263,470C2194.3,470,2126,470,2057,470C1988.6,470,1920,470,1851,470C1782.9,470,1714,470,1646,470C1577.1,470,1509,470,1440,470C1371.4,470,1303,470,1234,470C1165.7,470,1097,470,1029,470C960,470,891,470,823,470C754.3,470,686,470,617,470C548.6,470,480,470,411,470C342.9,470,274,470,206,470C137.1,470,69,470,34,470L0,470Z"/></svg>